<?xml version="1.0" encoding="UTF-8"?>
<svg xmlns="http://www.w3.org/2000/svg" version="1.1" viewBox="0 0 43.1 21.9">
  <defs>
    <style>
      .cls-1, .cls-2 {
        isolation: isolate;
      }

      .cls-3 {
        fill: #9fc612;
      }

      .cls-2 {
        fill: #fff;
        font-family: BerlinSansFB-Bold, 'Berlin Sans FB';
        font-size: 5px;
        font-weight: 700;
      }
    </style>
  </defs>
  <!-- Generator: Adobe Illustrator 28.6.0, SVG Export Plug-In . SVG Version: 1.2.0 Build 709)  -->
  <g>
    <g id="Layer_1">
      <path class="cls-3" d="M22.9,14v2.1h5v2h-12v-2h5v-2.1c-3.9-.5-7-3.9-7-7.9V.1h16v6c0,4.1-3.1,7.4-7,7.9h0ZM10.9,2.1h2v4h-2V2.1ZM30.9,2.1h2v4h-2V2.1Z"/>
      <g class="cls-1">
        <g class="cls-1">
          <g class="cls-1">
            <path class="cls-3" d="M.9,20.5h1.6s0,0,0,0,0,0,0,0h0v.7h0s0,0,0,0,0,0,0,0H.2c0,0,0,0,0-.1s0,0,0,0v-2.3s0,0,0,0,0,0,0,0H.2c0,0,.8,0,.8,0h0c0,0,0,0,0,.1s0,0,0,0v2Z"/>
            <path class="cls-3" d="M4.7,20.4h-1v.2c-.1,0-.2.1-.2.1,0,0,0,.1.1.1h0c0,0-.8,0-.8,0h0c0,0,0,0,.1,0s0,0,0-.1l.8-1.6c0,0,0-.1,0-.2s0,0-.1-.1h0c0,0,.8,0,.8,0h0c0,0-.1.1-.1.2s0,0,0,.2l.8,1.6c0,0,0,.1.1.2,0,0,0,0,.1,0h0c0,0-.9,0-.9,0h0c0,0,.1-.1.1-.2s0,0,0-.1v-.2ZM4.5,20.1l-.4-.7-.3.7h.7Z"/>
            <path class="cls-3" d="M6.4,19.5v1.2s0,0,0,0,0,0,0,0h0c0,0-.7,0-.7,0h0c0,0,0,0,0-.1s0,0,0,0v-1.8s0,0,0,0,0,0,0,0h0c0,0,.8,0,.8,0h0c0,0,0,0,0,.1s0,0,0,.1l1.2,1.2v-1.2s0,0,0,0,0,0,0,0h0c0,0,.7,0,.7,0h0c0,0,0,0,0,.1s0,0,0,0v1.8s0,0,0,0,0,0,0,0h0c0,0-.8,0-.8,0h0c0,0,0,0,0-.1s0,0,0,0,0,0-.1-.1l-1.2-1.1Z"/>
            <path class="cls-3" d="M8.9,20.8v-1.8s0,0,0,0,0,0,0,0h0c0,0,1.3,0,1.3,0,.3,0,.5,0,.6,0,.2,0,.4.2.5.5,0,.2,0,.3,0,.5,0,.4-.1.7-.3.8-.1,0-.2.1-.4.2s-.3,0-.5,0h-1.3c0,0,0,0,0-.1s0,0,0,0ZM9.4,20.6h.6c.3,0,.4,0,.6-.2.1-.1.2-.3.2-.5s0-.4-.2-.5c0,0-.1-.1-.2-.1s-.2,0-.3,0h-.6v1.4Z"/>
            <path class="cls-3" d="M13.7,19l-.3.5h0c0,0,0-.1,0-.1,0,0-.2-.1-.3-.2s-.3,0-.4,0-.2,0-.3,0c-.1,0-.2.1-.2.2s0,.1.1.1.2,0,.4,0h.3c.3,0,.5,0,.6.2,0,0,.1.1.2.2,0,0,0,.2,0,.3,0,.2-.1.4-.3.5-.2.1-.5.2-.8.2s-.6,0-1-.2c0,0,0,0,0,0,0,0,0,0,0,0h0s.2-.6.2-.6h0c0,0,0,0,0,.1,0,0,.2.1.3.1s.3,0,.5,0,.3,0,.4,0c.1,0,.2-.1.2-.2s0-.1-.1-.2c0,0-.2,0-.3,0h-.3c-.2,0-.3,0-.4,0s-.2,0-.2,0c0,0-.1-.1-.2-.2s0-.2,0-.3c0-.2.1-.4.3-.5.2-.1.4-.2.7-.2s.3,0,.4,0,.3,0,.5.2c0,0,0,0,.1,0s0,0,0,0h0Z"/>
            <path class="cls-3" d="M16.2,20.2l.3.5h0s0,0,0,0,0,0-.2,0c-.2.1-.3.2-.5.2s-.3,0-.5,0c-.4,0-.6,0-.9-.3-.1,0-.2-.2-.3-.4,0-.2-.1-.3-.1-.5s0-.5.2-.7c.2-.3.6-.5,1.1-.5s.3,0,.5,0,.3.1.5.2c0,0,.1,0,.2,0s0,0,0,0h0s-.3.5-.3.5h0s0,0,0,0c0,0,0,0,0,0,0,0,0-.1-.3-.2-.2,0-.3-.1-.5-.1s-.4,0-.6.2c-.2.1-.3.3-.3.5s0,.4.3.5c.2.1.4.2.6.2s.4,0,.6-.1c.1,0,.2-.1.2-.2s0,0,0,0h0Z"/>
            <path class="cls-3" d="M18.5,20.4h-1v.2c-.1,0-.2.1-.2.1,0,0,0,.1.1.1h0c0,0-.8,0-.8,0h0c0,0,0,0,.1,0s0,0,0-.1l.8-1.6c0,0,0-.1,0-.2s0,0-.1-.1h0c0,0,.8,0,.8,0h0c0,0-.1.1-.1.2s0,0,0,.2l.8,1.6c0,0,0,.1.1.2,0,0,0,0,.1,0h0c0,0-.9,0-.9,0h0c0,0,.1-.1.1-.2s0,0,0-.1v-.2ZM18.3,20.1l-.4-.7-.3.7h.7Z"/>
            <path class="cls-3" d="M20.3,20.1v.7s0,0,0,0,0,0,0,0h0c0,0-.8,0-.8,0h0c0,0,0,0,0-.1s0,0,0,0v-1.8s0,0,0,0,0,0,0,0h0c0,0,1.4,0,1.4,0,.3,0,.5,0,.6.1,0,0,.1.1.2.2s0,.2,0,.3c0,.2,0,.4-.2.5s-.4.2-.7.2h-.8ZM20.3,19.7h.7c.1,0,.2,0,.3,0,0,0,.1-.1.1-.2s0-.2-.1-.2c0,0-.1,0-.3,0h-.7v.5Z"/>
            <path class="cls-3" d="M22.9,20v.5h1.4s0,0,0,0c0,0,0,0,0,0h0v.6h0s0,0,0,0c0,0,0,0,0,0h-2c0,0,0,0,0-.1s0,0,0,0v-1.8s0,0,0,0,0,0,0,0h0c0,0,2,0,2,0,0,0,0,0,0,0s0,0,0,0h0v.6h0s0,0,0,0c0,0,0,0,0,0h-1.3v.5h.8s0,0,0,0,0,0,0,0h0v.6h0s0,0,0,0,0,0,0,0h-.8Z"/>
            <path class="cls-3" d="M27.8,20.3h-1.2l-.2.4c0,0,0,0,0,.1,0,0,0,0,.1.1h0c0,0-.9,0-.9,0h0c0,0,0,0,.1-.1s0,0,0-.2l1-2c0,0,0-.1,0-.2,0,0,0-.1-.1-.1h0c0,0,.9,0,.9,0h0c0,0-.1.1-.1.2s0,0,0,.1l1,2.1c0,0,0,.1.1.2,0,0,0,0,.1,0h0c0,0-1,0-1,0h0c0,0,.1-.1.1-.2s0,0,0-.1l-.2-.4ZM27.6,19.9l-.4-.9-.4.9h.9Z"/>
            <path class="cls-3" d="M30.6,19.5l-.5,1.2c0,0,0,.1,0,.1,0,0,0,.1.1.1h0c0,0-.8,0-.8,0h0c0,0,.1-.1.1-.2s0,0,0-.1l-.6-1.5c0-.1,0-.2-.1-.2s0,0-.1,0h0c0,0,.8,0,.8,0h0c0,0-.1.1-.1.2s0,0,0,.1l.4,1,.4-1c0,0,0-.1,0-.1,0,0,0-.1-.1-.1h0c0,0,1,0,1,0h0c0,0-.1.1-.1.2s0,0,0,.1l.4,1,.4-1s0,0,0-.1,0,0,0,0c0,0,0,0,0,0h0c0,0,.9,0,.9,0h0c0,0-.1.1-.1.1s0,.1-.1.2l-.6,1.5c0,0,0,.1,0,.1,0,0,0,.1.1.1h0c0,0-.8,0-.8,0h0c0,0,.1-.1.1-.2s0,0,0-.1l-.5-1.2Z"/>
            <path class="cls-3" d="M34.1,20.4h-1v.2c-.1,0-.2.1-.2.1,0,0,0,.1.1.1h0c0,0-.8,0-.8,0h0c0,0,0,0,.1,0,0,0,0,0,0-.1l.8-1.6c0,0,0-.1,0-.2s0,0-.1-.1h0c0,0,.8,0,.8,0h0c0,0-.1.1-.1.2s0,0,0,.2l.8,1.6c0,0,0,.1.1.2,0,0,0,0,.1,0h0c0,0-.9,0-.9,0h0c0,0,.1-.1.1-.2s0,0,0-.1v-.2ZM34,20.1l-.4-.7-.3.7h.7Z"/>
            <path class="cls-3" d="M35.9,20.1v.7s0,0,0,0c0,0,0,0,0,0h0c0,0-.8,0-.8,0h0c0,0,0,0,0-.1,0,0,0,0,0,0v-1.8s0,0,0,0c0,0,0,0,0,0h0c0,0,1.4,0,1.4,0,.2,0,.3,0,.4,0s.2,0,.3.1c.2.1.2.3.2.5s0,.3-.1.4c0,0-.3.2-.5.2l.4.6c0,.1.1.2.2.2s0,0,.2,0h0c0,0-.9,0-.9,0h0c0,0,.1-.1.1-.1s0,0,0-.1l-.4-.6h-.5ZM35.9,19.7h.8c.1,0,.2,0,.3,0,0,0,.1-.1.1-.2s0-.2,0-.2-.2,0-.3,0h-.8v.5Z"/>
            <path class="cls-3" d="M38.1,20.8v-1.8s0,0,0,0c0,0,0,0,0,0h0c0,0,1.3,0,1.3,0,.3,0,.5,0,.6,0,.2,0,.4.2.5.5,0,.2,0,.3,0,.5,0,.4-.1.7-.3.8-.1,0-.2.1-.4.2-.1,0-.3,0-.5,0h-1.3c0,0,0,0,0-.1,0,0,0,0,0,0ZM38.6,20.6h.6c.3,0,.4,0,.6-.2.1-.1.2-.3.2-.5s0-.4-.2-.5c0,0-.1-.1-.2-.1,0,0-.2,0-.3,0h-.6v1.4Z"/>
            <path class="cls-3" d="M42.9,19l-.3.5h0c0,0,0-.1,0-.1,0,0-.2-.1-.3-.2s-.3,0-.4,0-.2,0-.3,0c-.1,0-.2.1-.2.2s0,.1.1.1c0,0,.2,0,.4,0h.3c.3,0,.5,0,.6.2,0,0,.1.1.2.2s0,.2,0,.3c0,.2-.1.4-.3.5-.2.1-.5.2-.8.2s-.6,0-1-.2c0,0,0,0,0,0,0,0,0,0,0,0h0s.2-.6.2-.6h0c0,0,0,0,0,.1,0,0,.2.1.3.1s.3,0,.5,0,.3,0,.4,0c.1,0,.2-.1.2-.2s0-.1-.1-.2c0,0-.2,0-.3,0h-.3c-.2,0-.3,0-.4,0,0,0-.2,0-.2,0,0,0-.1-.1-.2-.2s0-.2,0-.3c0-.2.1-.4.3-.5.2-.1.4-.2.7-.2s.3,0,.4,0c.1,0,.3,0,.5.2,0,0,0,0,.1,0s0,0,0,0h0Z"/>
          </g>
        </g>
      </g>
      <g class="cls-1">
        <g class="cls-1">
          <text class="cls-2" transform="translate(16.6 6.8)"><tspan x="0" y="0">2024</tspan></text>
        </g>
      </g>
    </g>
  </g>
</svg>