<?xml version="1.0" encoding="utf-8"?>
<!-- Generator: Adobe Illustrator 28.3.0, SVG Export Plug-In . SVG Version: 6.00 Build 0)  -->
<svg version="1.1" id="Layer_1" xmlns="http://www.w3.org/2000/svg" xmlns:xlink="http://www.w3.org/1999/xlink" x="0px" y="0px"
	 viewBox="0 0 24 24" style="enable-background:new 0 0 24 24;" xml:space="preserve">
<style type="text/css">
	.st0{fill:none;stroke:#FBFBFB;stroke-width:1.5;stroke-linecap:round;stroke-linejoin:round;}
</style>
<path class="st0" d="M21.75,6.75v10.5c0,1.24264-1.00736,2.25-2.25,2.25h-15c-1.24264,0-2.25-1.00736-2.25-2.25V6.75 M21.75,6.75
	c0-1.24264-1.00736-2.25-2.25-2.25h-15c-1.24264,0-2.25,1.00736-2.25,2.25 M21.75,6.75v0.243
	c0.00009,0.7811-0.40494,1.50636-1.07,1.916l-7.5,4.615c-0.72355,0.44567-1.63645,0.44567-2.36,0L3.32,8.91
	C2.65494,8.50036,2.24991,7.7751,2.25,6.994V6.75"/>
</svg>
