<?xml version="1.0" encoding="utf-8"?>
<!-- Generator: Adobe Illustrator 28.3.0, SVG Export Plug-In . SVG Version: 6.00 Build 0)  -->
<svg version="1.1" id="Layer_1" xmlns="http://www.w3.org/2000/svg" xmlns:xlink="http://www.w3.org/1999/xlink" x="0px" y="0px"
	 viewBox="0 0 24 24" style="enable-background:new 0 0 24 24;" xml:space="preserve">
<style type="text/css">
	.st0{fill:none;stroke:#FBFBFB;stroke-width:1.5;stroke-linecap:round;stroke-linejoin:round;}
</style>
<path class="st0" d="M2.25,6.75c0,8.284,6.716,15,15,15h2.25c1.24264,0,2.25-1.00736,2.25-2.25v-1.372
	c0-0.516-0.351-0.966-0.852-1.091l-4.423-1.106c-0.44-0.11-0.902,0.055-1.173,0.417l-0.97,1.293c-0.282,0.376-0.769,0.542-1.21,0.38
	c-3.31339-1.21814-5.92486-3.82961-7.143-7.143c-0.162-0.441,0.004-0.928,0.38-1.21l1.293-0.97c0.363-0.271,0.527-0.734,0.417-1.173
	L6.963,3.102C6.83778,2.60139,6.38803,2.25017,5.872,2.25H4.5c-1.24264,0-2.25,1.00736-2.25,2.25V6.75z"/>
</svg>
