<?xml version="1.0" standalone="no"?>
<!DOCTYPE svg PUBLIC "-//W3C//DTD SVG 20010904//EN"
 "http://www.w3.org/TR/2001/REC-SVG-20010904/DTD/svg10.dtd">
<svg version="1.0" xmlns="http://www.w3.org/2000/svg"
 width="700.000000pt" height="700.000000pt" viewBox="0 0 700.000000 700.000000"
 preserveAspectRatio="xMidYMid meet">
<metadata>
Created by potrace 1.14, written by Peter Selinger 2001-2017
</metadata>
<g transform="translate(0.000000,700.000000) scale(0.100000,-0.100000)"
fill="#000000" stroke="none">
<path d="M3308 6995 c-1 -2 -32 -6 -68 -9 -519 -47 -1021 -256 -1395 -579
-546 -471 -784 -1143 -635 -1792 10 -44 22 -88 25 -98 6 -14 -4 -22 -51 -43
-458 -202 -800 -511 -1003 -907 -56 -108 -116 -269 -140 -372 -51 -227 -50
-487 3 -735 17 -76 76 -238 122 -330 164 -334 393 -577 759 -805 195 -122 509
-238 770 -284 215 -38 232 -39 883 -40 l532 -1 0 -500 0 -500 390 0 390 0 0
500 0 500 438 1 c476 0 555 3 702 24 14 2 45 7 70 10 145 20 442 103 583 164
26 11 48 20 50 20 1 -1 56 27 122 61 352 181 636 429 837 730 119 178 229 431
264 605 2 11 12 58 21 105 21 106 24 428 4 540 -78 453 -311 857 -666 1155
-33 28 -62 53 -65 56 -15 19 -241 165 -332 216 -60 33 -106 62 -104 64 13 15
22 339 11 419 -7 55 -19 135 -20 140 -1 3 -5 23 -9 45 -49 258 -189 546 -382
787 -162 203 -425 420 -650 538 -32 17 -63 35 -69 39 -20 17 -233 105 -341
142 -154 52 -334 94 -489 114 -28 3 -64 8 -80 11 -36 5 -472 14 -477 9z m401
-676 c120 -14 130 -16 226 -40 670 -170 1131 -702 1119 -1289 -3 -149 -23
-245 -101 -488 -25 -78 -43 -145 -40 -148 3 -3 101 -38 218 -78 118 -40 251
-91 296 -113 72 -36 190 -103 218 -125 326 -250 484 -485 561 -833 3 -16 7
-100 9 -185 3 -185 -14 -289 -76 -446 -143 -366 -469 -662 -889 -808 -118 -42
-308 -83 -426 -92 -105 -9 -2751 -9 -2832 0 -265 29 -496 111 -698 247 -264
178 -442 438 -499 729 -29 149 -13 358 40 515 95 284 344 548 655 694 l65 30
50 -57 c121 -139 274 -278 426 -385 l66 -47 44 48 c24 26 69 76 99 111 86 100
90 104 123 142 18 19 55 62 84 95 28 32 65 75 82 94 17 19 31 38 31 41 0 3
-39 35 -87 71 -216 162 -368 363 -456 600 -220 593 82 1249 717 1557 302 146
628 200 975 160z"/>
</g>
</svg>
